<svg width="34" height="34" viewBox="0 0 34 34" fill="none" xmlns="http://www.w3.org/2000/svg">
<g id="hugeicons:assignments" clip-path="url(#clip0_1497_3210)">
<path id="assignment_add" d="M3.91667 31.2499C3.04583 31.2499 2.30035 30.9398 1.68021 30.3197C1.06007 29.6996 0.75 28.9541 0.75 28.0833V5.91658C0.75 5.04575 1.06007 4.30027 1.68021 3.68013C2.30035 3.05999 3.04583 2.74992 3.91667 2.74992H10.5667C10.9097 1.79992 11.4837 1.03464 12.2885 0.454085C13.0934 -0.12647 13.9972 -0.416748 15 -0.416748C16.0028 -0.416748 16.9066 -0.12647 17.7115 0.454085C18.5163 1.03464 19.0903 1.79992 19.4333 2.74992H26.0833C26.9542 2.74992 27.6997 3.05999 28.3198 3.68013C28.9399 4.30027 29.25 5.04575 29.25 5.91658V16.5249C28.7486 16.2874 28.234 16.0829 27.7062 15.9114C27.1785 15.7398 26.6375 15.6145 26.0833 15.5353V5.91658H3.91667V28.0833H13.4958C13.575 28.6638 13.7003 29.218 13.8719 29.7458C14.0434 30.2735 14.2479 30.7749 14.4854 31.2499H3.91667ZM3.91667 28.0833V5.91658V15.5353V15.4166V28.0833ZM7.08333 24.9166H13.5354C13.6146 24.3624 13.7399 23.8214 13.9115 23.2937C14.083 22.7659 14.2743 22.2513 14.4854 21.7499H7.08333V24.9166ZM7.08333 18.5833H16.7417C17.5861 17.7916 18.5295 17.1319 19.5719 16.6041C20.6142 16.0763 21.7292 15.7201 22.9167 15.5353V15.4166H7.08333V18.5833ZM7.08333 12.2499H22.9167V9.08325H7.08333V12.2499ZM15 4.72908C15.3431 4.72908 15.6267 4.61693 15.851 4.39263C16.0753 4.16832 16.1875 3.88464 16.1875 3.54158C16.1875 3.19853 16.0753 2.91485 15.851 2.69054C15.6267 2.46624 15.3431 2.35409 15 2.35409C14.6569 2.35409 14.3733 2.46624 14.149 2.69054C13.9247 2.91485 13.8125 3.19853 13.8125 3.54158C13.8125 3.88464 13.9247 4.16832 14.149 4.39263C14.3733 4.61693 14.6569 4.72908 15 4.72908ZM24.5 34.4166C22.3097 34.4166 20.4427 33.6447 18.899 32.101C17.3552 30.5572 16.5833 28.6902 16.5833 26.4999C16.5833 24.3096 17.3552 22.4426 18.899 20.8989C20.4427 19.3551 22.3097 18.5833 24.5 18.5833C26.6903 18.5833 28.5573 19.3551 30.101 20.8989C31.6448 22.4426 32.4167 24.3096 32.4167 26.4999C32.4167 28.6902 31.6448 30.5572 30.101 32.101C28.5573 33.6447 26.6903 34.4166 24.5 34.4166ZM23.7083 31.2499H25.2917V27.2916H29.25V25.7083H25.2917V21.7499H23.7083V25.7083H19.75V27.2916H23.7083V31.2499Z" fill="#FE516D"/>
</g>
<defs>
<clipPath id="clip0_1497_3210">
<rect width="34" height="34" fill="white"/>
</clipPath>
</defs>
</svg>
