<svg width="32" height="32" viewBox="0 0 32 32" fill="none" xmlns="http://www.w3.org/2000/svg">
<g id="mdi:timer-sand" clip-path="url(#clip0_1497_3224)">
<g id="edit_calendar">
<mask id="mask0_1497_3224" style="mask-type:alpha" maskUnits="userSpaceOnUse" x="-3" y="-3" width="38" height="38">
<rect id="Bounding box" x="-3" y="-3" width="38" height="38" fill="#D9D9D9"/>
</mask>
<g mask="url(#mask0_1497_3224)">
<path id="edit_calendar_2" d="M4.91667 31.8333C4.04583 31.8333 3.30035 31.5232 2.68021 30.9031C2.06007 30.2829 1.75 29.5375 1.75 28.6666V6.49996C1.75 5.62913 2.06007 4.88364 2.68021 4.2635C3.30035 3.64336 4.04583 3.33329 4.91667 3.33329H6.5V0.166626H9.66667V3.33329H22.3333V0.166626H25.5V3.33329H27.0833C27.9542 3.33329 28.6997 3.64336 29.3198 4.2635C29.9399 4.88364 30.25 5.62913 30.25 6.49996V14.4166H27.0833V12.8333H4.91667V28.6666H16V31.8333H4.91667ZM4.91667 9.66663H27.0833V6.49996H4.91667V9.66663ZM19.1667 31.8333V26.9645L27.9146 18.2562C28.1521 18.0187 28.416 17.8472 28.7062 17.7416C28.9965 17.6361 29.2868 17.5833 29.5771 17.5833C29.8937 17.5833 30.1972 17.6427 30.4875 17.7614C30.7778 17.8802 31.0417 18.0583 31.2792 18.2958L32.7437 19.7604C32.9549 19.9979 33.1198 20.2618 33.2385 20.552C33.3573 20.8423 33.4167 21.1326 33.4167 21.4229C33.4167 21.7132 33.3639 22.01 33.2583 22.3135C33.1528 22.617 32.9812 22.8875 32.7437 23.125L24.0354 31.8333H19.1667ZM21.5417 29.4583H23.0458L27.8354 24.6291L27.1229 23.877L26.3708 23.1645L21.5417 27.9541V29.4583ZM27.1229 23.877L26.3708 23.1645L27.8354 24.6291L27.1229 23.877Z" fill="#FE516D"/>
</g>
</g>
</g>
<defs>
<clipPath id="clip0_1497_3224">
<rect width="32" height="32" fill="white"/>
</clipPath>
</defs>
</svg>
