<svg width="38" height="38" viewBox="0 0 38 38" fill="none" xmlns="http://www.w3.org/2000/svg">
<g id="calendar_month">
<mask id="mask0_2155_19520" style="mask-type:alpha" maskUnits="userSpaceOnUse" x="0" y="0" width="38" height="38">
<rect id="Bounding box" width="38" height="38" fill="#D9D9D9"/>
</mask>
<g mask="url(#mask0_2155_19520)">
<path id="calendar_month_2" d="M7.91667 34.8333C7.04583 34.8333 6.30035 34.5232 5.68021 33.9031C5.06007 33.2829 4.75 32.5375 4.75 31.6666V9.49996C4.75 8.62913 5.06007 7.88364 5.68021 7.2635C6.30035 6.64336 7.04583 6.33329 7.91667 6.33329H9.5V3.16663H12.6667V6.33329H25.3333V3.16663H28.5V6.33329H30.0833C30.9542 6.33329 31.6997 6.64336 32.3198 7.2635C32.9399 7.88364 33.25 8.62913 33.25 9.49996V31.6666C33.25 32.5375 32.9399 33.2829 32.3198 33.9031C31.6997 34.5232 30.9542 34.8333 30.0833 34.8333H7.91667ZM7.91667 31.6666H30.0833V15.8333H7.91667V31.6666ZM7.91667 12.6666H30.0833V9.49996H7.91667V12.6666ZM19 22.1666C18.5514 22.1666 18.1753 22.0149 17.8719 21.7114C17.5684 21.4079 17.4167 21.0319 17.4167 20.5833C17.4167 20.1347 17.5684 19.7586 17.8719 19.4552C18.1753 19.1517 18.5514 19 19 19C19.4486 19 19.8247 19.1517 20.1281 19.4552C20.4316 19.7586 20.5833 20.1347 20.5833 20.5833C20.5833 21.0319 20.4316 21.4079 20.1281 21.7114C19.8247 22.0149 19.4486 22.1666 19 22.1666ZM12.6667 22.1666C12.2181 22.1666 11.842 22.0149 11.5385 21.7114C11.2351 21.4079 11.0833 21.0319 11.0833 20.5833C11.0833 20.1347 11.2351 19.7586 11.5385 19.4552C11.842 19.1517 12.2181 19 12.6667 19C13.1153 19 13.4913 19.1517 13.7948 19.4552C14.0983 19.7586 14.25 20.1347 14.25 20.5833C14.25 21.0319 14.0983 21.4079 13.7948 21.7114C13.4913 22.0149 13.1153 22.1666 12.6667 22.1666ZM25.3333 22.1666C24.8847 22.1666 24.5087 22.0149 24.2052 21.7114C23.9017 21.4079 23.75 21.0319 23.75 20.5833C23.75 20.1347 23.9017 19.7586 24.2052 19.4552C24.5087 19.1517 24.8847 19 25.3333 19C25.7819 19 26.158 19.1517 26.4615 19.4552C26.7649 19.7586 26.9167 20.1347 26.9167 20.5833C26.9167 21.0319 26.7649 21.4079 26.4615 21.7114C26.158 22.0149 25.7819 22.1666 25.3333 22.1666ZM19 28.5C18.5514 28.5 18.1753 28.3482 17.8719 28.0448C17.5684 27.7413 17.4167 27.3652 17.4167 26.9166C17.4167 26.468 17.5684 26.092 17.8719 25.7885C18.1753 25.485 18.5514 25.3333 19 25.3333C19.4486 25.3333 19.8247 25.485 20.1281 25.7885C20.4316 26.092 20.5833 26.468 20.5833 26.9166C20.5833 27.3652 20.4316 27.7413 20.1281 28.0448C19.8247 28.3482 19.4486 28.5 19 28.5ZM12.6667 28.5C12.2181 28.5 11.842 28.3482 11.5385 28.0448C11.2351 27.7413 11.0833 27.3652 11.0833 26.9166C11.0833 26.468 11.2351 26.092 11.5385 25.7885C11.842 25.485 12.2181 25.3333 12.6667 25.3333C13.1153 25.3333 13.4913 25.485 13.7948 25.7885C14.0983 26.092 14.25 26.468 14.25 26.9166C14.25 27.3652 14.0983 27.7413 13.7948 28.0448C13.4913 28.3482 13.1153 28.5 12.6667 28.5ZM25.3333 28.5C24.8847 28.5 24.5087 28.3482 24.2052 28.0448C23.9017 27.7413 23.75 27.3652 23.75 26.9166C23.75 26.468 23.9017 26.092 24.2052 25.7885C24.5087 25.485 24.8847 25.3333 25.3333 25.3333C25.7819 25.3333 26.158 25.485 26.4615 25.7885C26.7649 26.092 26.9167 26.468 26.9167 26.9166C26.9167 27.3652 26.7649 27.7413 26.4615 28.0448C26.158 28.3482 25.7819 28.5 25.3333 28.5Z" fill="#FE516D"/>
</g>
</g>
</svg>
