<svg width="38" height="38" viewBox="0 0 38 38" fill="none" xmlns="http://www.w3.org/2000/svg">
<g id="chat">
<mask id="mask0_2155_19546" style="mask-type:alpha" maskUnits="userSpaceOnUse" x="0" y="0" width="38" height="38">
<rect id="Bounding box" width="38" height="38" fill="#D9D9D9"/>
</mask>
<g mask="url(#mask0_2155_19546)">
<path id="chat_2" d="M9.49984 22.1666H22.1665V19H9.49984V22.1666ZM9.49984 17.4166H28.4998V14.25H9.49984V17.4166ZM9.49984 12.6666H28.4998V9.49996H9.49984V12.6666ZM3.1665 34.8333V6.33329C3.1665 5.46246 3.47657 4.71697 4.09671 4.09683C4.71685 3.4767 5.46234 3.16663 6.33317 3.16663H31.6665C32.5373 3.16663 33.2828 3.4767 33.903 4.09683C34.5231 4.71697 34.8332 5.46246 34.8332 6.33329V25.3333C34.8332 26.2041 34.5231 26.9496 33.903 27.5697C33.2828 28.1899 32.5373 28.5 31.6665 28.5H9.49984L3.1665 34.8333ZM8.154 25.3333H31.6665V6.33329H6.33317V27.1145L8.154 25.3333Z" fill="#FE516D"/>
</g>
</g>
</svg>
