<svg width="38" height="38" viewBox="0 0 38 38" fill="none" xmlns="http://www.w3.org/2000/svg">
<g id="pending_actions">
<mask id="mask0_2155_19550" style="mask-type:alpha" maskUnits="userSpaceOnUse" x="0" y="0" width="38" height="38">
<rect id="Bounding box" width="38" height="38" fill="#D9D9D9"/>
</mask>
<g mask="url(#mask0_2155_19550)">
<path id="pending_actions_2" d="M26.9167 34.8334C24.7264 34.8334 22.8594 34.0615 21.3156 32.5177C19.7719 30.974 19 29.107 19 26.9167C19 24.7264 19.7719 22.8594 21.3156 21.3157C22.8594 19.7719 24.7264 19 26.9167 19C29.1069 19 30.974 19.7719 32.5177 21.3157C34.0615 22.8594 34.8333 24.7264 34.8333 26.9167C34.8333 29.107 34.0615 30.974 32.5177 32.5177C30.974 34.0615 29.1069 34.8334 26.9167 34.8334ZM29.5688 30.6771L30.6771 29.5688L27.7083 26.6V22.1667H26.125V27.2334L29.5688 30.6771ZM7.91667 33.25C7.04583 33.25 6.30035 32.94 5.68021 32.3198C5.06007 31.6997 4.75 30.9542 4.75 30.0834V7.91671C4.75 7.04587 5.06007 6.30039 5.68021 5.68025C6.30035 5.06011 7.04583 4.75004 7.91667 4.75004H14.5271C14.8174 3.82643 15.3847 3.06775 16.2292 2.474C17.0736 1.88025 17.9972 1.58337 19 1.58337C20.0556 1.58337 20.999 1.88025 21.8302 2.474C22.6615 3.06775 23.2222 3.82643 23.5125 4.75004H30.0833C30.9542 4.75004 31.6997 5.06011 32.3198 5.68025C32.9399 6.30039 33.25 7.04587 33.25 7.91671V17.8125C32.775 17.4695 32.2736 17.1792 31.7458 16.9417C31.2181 16.7042 30.6639 16.4931 30.0833 16.3084V7.91671H26.9167V12.6667H11.0833V7.91671H7.91667V30.0834H16.3083C16.4931 30.6639 16.7042 31.2181 16.9417 31.7459C17.1792 32.2737 17.4694 32.775 17.8125 33.25H7.91667ZM19 7.91671C19.4486 7.91671 19.8247 7.76497 20.1281 7.4615C20.4316 7.15803 20.5833 6.78199 20.5833 6.33337C20.5833 5.88476 20.4316 5.50872 20.1281 5.20525C19.8247 4.90178 19.4486 4.75004 19 4.75004C18.5514 4.75004 18.1753 4.90178 17.8719 5.20525C17.5684 5.50872 17.4167 5.88476 17.4167 6.33337C17.4167 6.78199 17.5684 7.15803 17.8719 7.4615C18.1753 7.76497 18.5514 7.91671 19 7.91671Z" fill="#FE516D"/>
</g>
</g>
</svg>
