<svg width="38" height="38" viewBox="0 0 38 38" fill="none" xmlns="http://www.w3.org/2000/svg">
<g id="account_balance_wallet">
<mask id="mask0_2155_19554" style="mask-type:alpha" maskUnits="userSpaceOnUse" x="0" y="0" width="38" height="38">
<rect id="Bounding box" width="38" height="38" fill="#D9D9D9"/>
</mask>
<g mask="url(#mask0_2155_19554)">
<path id="account_balance_wallet_2" d="M7.91667 33.25C7.04583 33.25 6.30035 32.9399 5.68021 32.3198C5.06007 31.6997 4.75 30.9542 4.75 30.0833V7.91667C4.75 7.04583 5.06007 6.30035 5.68021 5.68021C6.30035 5.06007 7.04583 4.75 7.91667 4.75H30.0833C30.9542 4.75 31.6997 5.06007 32.3198 5.68021C32.9399 6.30035 33.25 7.04583 33.25 7.91667V11.875H30.0833V7.91667H7.91667V30.0833H30.0833V26.125H33.25V30.0833C33.25 30.9542 32.9399 31.6997 32.3198 32.3198C31.6997 32.9399 30.9542 33.25 30.0833 33.25H7.91667ZM20.5833 26.9167C19.7125 26.9167 18.967 26.6066 18.3469 25.9865C17.7267 25.3663 17.4167 24.6208 17.4167 23.75V14.25C17.4167 13.3792 17.7267 12.6337 18.3469 12.0135C18.967 11.3934 19.7125 11.0833 20.5833 11.0833H31.6667C32.5375 11.0833 33.283 11.3934 33.9031 12.0135C34.5233 12.6337 34.8333 13.3792 34.8333 14.25V23.75C34.8333 24.6208 34.5233 25.3663 33.9031 25.9865C33.283 26.6066 32.5375 26.9167 31.6667 26.9167H20.5833ZM31.6667 23.75V14.25H20.5833V23.75H31.6667ZM25.3333 21.375C25.9931 21.375 26.5538 21.1441 27.0156 20.6823C27.4774 20.2205 27.7083 19.6597 27.7083 19C27.7083 18.3403 27.4774 17.7795 27.0156 17.3177C26.5538 16.8559 25.9931 16.625 25.3333 16.625C24.6736 16.625 24.1128 16.8559 23.651 17.3177C23.1892 17.7795 22.9583 18.3403 22.9583 19C22.9583 19.6597 23.1892 20.2205 23.651 20.6823C24.1128 21.1441 24.6736 21.375 25.3333 21.375Z" fill="#FE516D"/>
</g>
</g>
</svg>
