<svg width="38" height="38" viewBox="0 0 38 38" fill="none" xmlns="http://www.w3.org/2000/svg">
<g id="event_busy">
<mask id="mask0_2155_19558" style="mask-type:alpha" maskUnits="userSpaceOnUse" x="0" y="0" width="38" height="38">
<rect id="Bounding box" width="38" height="38" fill="#D9D9D9"/>
</mask>
<g mask="url(#mask0_2155_19558)">
<path id="event_busy_2" d="M15.3583 29.6083L13.1417 27.3916L16.7833 23.75L13.1417 20.1083L15.3583 17.8916L19 21.5333L22.6417 17.8916L24.8583 20.1083L21.2167 23.75L24.8583 27.3916L22.6417 29.6083L19 25.9666L15.3583 29.6083ZM7.91667 34.8333C7.04583 34.8333 6.30035 34.5232 5.68021 33.9031C5.06007 33.2829 4.75 32.5375 4.75 31.6666V9.49996C4.75 8.62913 5.06007 7.88364 5.68021 7.2635C6.30035 6.64336 7.04583 6.33329 7.91667 6.33329H9.5V3.16663H12.6667V6.33329H25.3333V3.16663H28.5V6.33329H30.0833C30.9542 6.33329 31.6997 6.64336 32.3198 7.2635C32.9399 7.88364 33.25 8.62913 33.25 9.49996V31.6666C33.25 32.5375 32.9399 33.2829 32.3198 33.9031C31.6997 34.5232 30.9542 34.8333 30.0833 34.8333H7.91667ZM7.91667 31.6666H30.0833V15.8333H7.91667V31.6666ZM7.91667 12.6666H30.0833V9.49996H7.91667V12.6666Z" fill="#FE516D"/>
</g>
</g>
</svg>
