<svg width="38" height="38" viewBox="0 0 38 38" fill="none" xmlns="http://www.w3.org/2000/svg">
<g id="local_library">
<mask id="mask0_2155_19592" style="mask-type:alpha" maskUnits="userSpaceOnUse" x="0" y="0" width="38" height="38">
<rect id="Bounding box" width="38" height="38" fill="#D9D9D9"/>
</mask>
<g mask="url(#mask0_2155_19592)">
<path id="local_library_2" d="M19 35.625C17.1 33.8306 14.9229 32.4584 12.4688 31.5084C10.0146 30.5584 7.44167 30.0834 4.75 30.0834V12.6667C7.41528 12.6667 9.975 13.1483 12.4292 14.1115C14.8833 15.0747 17.0736 16.4667 19 18.2875C20.9264 16.4667 23.1167 15.0747 25.5708 14.1115C28.025 13.1483 30.5847 12.6667 33.25 12.6667V30.0834C30.5319 30.0834 27.9524 30.5584 25.5115 31.5084C23.0705 32.4584 20.9 33.8306 19 35.625ZM19 31.5084C20.6625 30.2681 22.4306 29.2785 24.3042 28.5396C26.1778 27.8007 28.1042 27.3125 30.0833 27.075V16.15C28.1569 16.4931 26.2635 17.1858 24.4031 18.2282C22.5427 19.2705 20.7417 20.6625 19 22.4042C17.2583 20.6625 15.4573 19.2705 13.5969 18.2282C11.7365 17.1858 9.84306 16.4931 7.91667 16.15V27.075C9.89583 27.3125 11.8222 27.8007 13.6958 28.5396C15.5694 29.2785 17.3375 30.2681 19 31.5084ZM19 14.25C17.2583 14.25 15.7674 13.6299 14.5271 12.3896C13.2868 11.1493 12.6667 9.65837 12.6667 7.91671C12.6667 6.17504 13.2868 4.68407 14.5271 3.44379C15.7674 2.20351 17.2583 1.58337 19 1.58337C20.7417 1.58337 22.2326 2.20351 23.4729 3.44379C24.7132 4.68407 25.3333 6.17504 25.3333 7.91671C25.3333 9.65837 24.7132 11.1493 23.4729 12.3896C22.2326 13.6299 20.7417 14.25 19 14.25ZM19 11.0834C19.8708 11.0834 20.6163 10.7733 21.2365 10.1532C21.8566 9.53303 22.1667 8.78754 22.1667 7.91671C22.1667 7.04587 21.8566 6.30039 21.2365 5.68025C20.6163 5.06011 19.8708 4.75004 19 4.75004C18.1292 4.75004 17.3837 5.06011 16.7635 5.68025C16.1434 6.30039 15.8333 7.04587 15.8333 7.91671C15.8333 8.78754 16.1434 9.53303 16.7635 10.1532C17.3837 10.7733 18.1292 11.0834 19 11.0834Z" fill="#FE516D"/>
</g>
</g>
</svg>
