<svg width="200" height="30" viewBox="0 0 200 30" fill="none" xmlns="http://www.w3.org/2000/svg">
<g id="Paperbox logo">
<path id="Vector" d="M0.773926 1.27942V29.3509H122.333V0.649109H1.4211C1.37528 0.649109 0.779654 1.24003 0.779654 1.27942H0.773926ZM99.9972 4.44787H112.666C113.29 4.44787 115.942 5.96738 116.549 6.54142C118.914 8.75314 119.515 12.4956 118.25 15.4221C117.666 16.7671 115.489 18.0784 115.461 19.0014C115.438 19.9131 118.771 24.7136 119.321 25.9742H112.23C111.543 25.9742 109.315 19.9356 108.943 19.7105C105.65 17.707 106.417 24.2802 106.429 25.9742H99.9858V4.44787H99.9972ZM78.5203 4.44787H93.5542V9.5129H84.9634V12.4675H92.6951V17.5325H84.9634V20.9092H93.9837V25.9742H78.5203V4.44787ZM54.8957 4.44787H66.2814C66.7166 4.44787 69.1049 5.45525 69.6489 5.78166C75.5365 9.34969 73.6408 19.4797 66.247 20.4477C61.041 21.1287 60.5084 18.7369 60.915 25.9742H54.9015V4.44787H54.8957ZM34.7475 4.4929L40.9558 4.42537L49.7356 25.9798H42.8629C42.7198 25.9798 42.5709 23.9426 42.0497 23.2841C41.792 22.9577 35.3661 22.817 34.5643 23.0084C33.7224 23.2053 33.5792 25.9798 33.4131 25.9798H26.5405L34.7418 4.49852L34.7475 4.4929ZM4.63977 4.44787C8.31089 4.81368 12.9041 3.95263 16.4492 4.44787C23.7628 5.47213 25.7845 15.9792 19.2612 19.4516C16.5809 20.8811 14.0094 20.4646 11.0771 20.4815V25.9686H4.63404V4.44225L4.63977 4.44787Z" fill="#583919"/>
<path id="Vector_2" d="M148.518 13.9251C148.237 17.2174 149.297 20.9261 151.696 23.2898C157.968 29.4691 171.312 26.295 172.177 16.9135C173.717 0.198911 149.698 0.0413344 148.518 13.9251ZM159.48 20.4984C153.002 19.778 153.621 9.96315 160.029 9.61985C167.583 9.21465 168.282 21.4776 159.48 20.4984Z" fill="#583919"/>
<path id="Vector_3" d="M140.804 14.7861C145.374 12.1523 143.409 5.25829 138.438 4.44788C134.653 3.82882 129.303 4.90373 125.334 4.44788V25.9742H138.438C138.622 25.9742 141.01 24.8768 141.376 24.6404C145.236 22.1248 144.664 16.981 140.804 14.7861ZM131.354 9.09082C139.085 7.90898 138.942 13.987 131.354 12.8952V9.09082ZM137.362 19.8343C136.909 22.2655 133.169 21.0724 131.348 21.3313C131.457 18.2698 130.357 16.8797 134.131 17.1104C136.176 17.2342 137.791 17.4988 137.362 19.8343Z" fill="#583919"/>
<path id="Vector_4" d="M192.342 15.1856C192.165 13.441 197.984 6.64265 198.791 4.4478H191.489C191.426 5.37076 188.19 10.3626 187.835 10.3514C186.867 9.76608 184.502 4.64478 184.187 4.4478C183.591 4.08762 178.133 4.71794 176.885 4.4478L183.688 15.135L176.455 25.9741H184.187L187.629 19.6429C188.242 19.2264 191.432 25.9741 192.136 25.9741H199.226C198.488 23.6667 192.52 16.8965 192.348 15.1856H192.342Z" fill="#583919"/>
<path id="Vector_5" d="M106.44 9.51292V15.0057C114.373 15.9455 114.716 8.25792 106.44 9.51292Z" fill="#583919"/>
<path id="Vector_6" d="M40.7211 18.3711L38.3615 12.0455C37.5024 12.6195 35.7327 18.1291 35.9962 18.3711H40.7211Z" fill="#583919"/>
<path id="Vector_7" d="M11.0825 9.51288V15.4221C18.7684 16.6546 18.6882 8.46611 11.0825 9.51288Z" fill="#583919"/>
<path id="Vector_8" d="M60.9092 9.51289V15.4221C68.8012 16.6152 68.7669 8.39859 60.9092 9.51289Z" fill="#583919"/>
</g>
</svg>
