<svg width="38" height="38" viewBox="0 0 38 38" fill="none" xmlns="http://www.w3.org/2000/svg">
<g id="healthicons:i-schedule-school-date-time-outline" clip-path="url(#clip0_1497_3218)">
<g id="Group">
<path id="Vector" fill-rule="evenodd" clip-rule="evenodd" d="M7.9165 18.2083C7.9165 17.7884 8.08332 17.3857 8.38025 17.0887C8.67718 16.7918 9.07991 16.625 9.49984 16.625H11.0832C11.5031 16.625 11.9058 16.7918 12.2028 17.0887C12.4997 17.3857 12.6665 17.7884 12.6665 18.2083V19.7917C12.6665 20.2116 12.4997 20.6143 12.2028 20.9113C11.9058 21.2082 11.5031 21.375 11.0832 21.375H9.49984C9.07991 21.375 8.67718 21.2082 8.38025 20.9113C8.08332 20.6143 7.9165 20.2116 7.9165 19.7917V18.2083ZM11.0832 18.2083V19.7917H9.49984V18.2083H11.0832ZM15.8332 16.625C15.4132 16.625 15.0105 16.7918 14.7136 17.0887C14.4167 17.3857 14.2498 17.7884 14.2498 18.2083V19.7917C14.2498 20.2116 14.4167 20.6143 14.7136 20.9113C15.0105 21.2082 15.4132 21.375 15.8332 21.375H17.4165C17.8364 21.375 18.2392 21.2082 18.5361 20.9113C18.833 20.6143 18.9998 20.2116 18.9998 19.7917V18.2083C18.9998 17.7884 18.833 17.3857 18.5361 17.0887C18.2392 16.7918 17.8364 16.625 17.4165 16.625H15.8332ZM17.4165 18.2083H15.8332V19.7917H17.4165V18.2083ZM20.5832 18.2083C20.5832 17.7884 20.75 17.3857 21.0469 17.0887C21.3439 16.7918 21.7466 16.625 22.1665 16.625H23.7498C24.1698 16.625 24.5725 16.7918 24.8694 17.0887C25.1664 17.3857 25.3332 17.7884 25.3332 18.2083V19.7917C25.3332 20.2116 25.1664 20.6143 24.8694 20.9113C24.5725 21.2082 24.1698 21.375 23.7498 21.375H22.1665C21.7466 21.375 21.3439 21.2082 21.0469 20.9113C20.75 20.6143 20.5832 20.2116 20.5832 19.7917V18.2083ZM22.1665 18.2083H23.7498V19.7917H22.1665V18.2083ZM9.49984 22.9583C9.07991 22.9583 8.67718 23.1251 8.38025 23.4221C8.08332 23.719 7.9165 24.1217 7.9165 24.5417V26.125C7.9165 26.5449 8.08332 26.9477 8.38025 27.2446C8.67718 27.5415 9.07991 27.7083 9.49984 27.7083H11.0832C11.5031 27.7083 11.9058 27.5415 12.2028 27.2446C12.4997 26.9477 12.6665 26.5449 12.6665 26.125V24.5417C12.6665 24.1217 12.4997 23.719 12.2028 23.4221C11.9058 23.1251 11.5031 22.9583 11.0832 22.9583H9.49984ZM9.49984 24.5417V26.125H11.0832V24.5417H9.49984ZM14.2498 24.5417C14.2498 24.1217 14.4167 23.719 14.7136 23.4221C15.0105 23.1251 15.4132 22.9583 15.8332 22.9583H17.4165C17.8364 22.9583 18.2392 23.1251 18.5361 23.4221C18.833 23.719 18.9998 24.1217 18.9998 24.5417V26.125C18.9998 26.5449 18.833 26.9477 18.5361 27.2446C18.2392 27.5415 17.8364 27.7083 17.4165 27.7083H15.8332C15.4132 27.7083 15.0105 27.5415 14.7136 27.2446C14.4167 26.9477 14.2498 26.5449 14.2498 26.125V24.5417ZM15.8332 24.5417H17.4165V26.125H15.8332V24.5417Z" fill="#FE516D"/>
<path id="Vector_2" d="M27.7082 24.9375C27.9181 24.9375 28.1195 25.0209 28.268 25.1694C28.4164 25.3178 28.4998 25.5192 28.4998 25.7292V27.3806L29.0595 27.9403C29.2038 28.0896 29.2836 28.2896 29.2817 28.4972C29.2799 28.7047 29.1967 28.9033 29.0499 29.0501C28.9031 29.1968 28.7046 29.2801 28.497 29.2819C28.2894 29.2837 28.0894 29.2039 27.9401 29.0597L26.9165 28.0361V25.7292C26.9165 25.5192 26.9999 25.3178 27.1484 25.1694C27.2968 25.0209 27.4982 24.9375 27.7082 24.9375Z" fill="#FE516D"/>
<g id="calendar_clock">
<mask id="mask0_1497_3218" style="mask-type:alpha" maskUnits="userSpaceOnUse" x="0" y="0" width="38" height="38">
<rect id="Bounding box" width="38" height="38" fill="#D9D9D9"/>
</mask>
<g mask="url(#mask0_1497_3218)">
<path id="calendar_clock_2" d="M7.91667 12.6666H30.0833V9.49996H7.91667V12.6666ZM7.91667 34.8333C7.04583 34.8333 6.30035 34.5232 5.68021 33.9031C5.06007 33.2829 4.75 32.5375 4.75 31.6666V9.49996C4.75 8.62913 5.06007 7.88364 5.68021 7.2635C6.30035 6.64336 7.04583 6.33329 7.91667 6.33329H9.5V3.16663H12.6667V6.33329H25.3333V3.16663H28.5V6.33329H30.0833C30.9542 6.33329 31.6997 6.64336 32.3198 7.2635C32.9399 7.88364 33.25 8.62913 33.25 9.49996V18.4854C32.7486 18.2479 32.234 18.05 31.7062 17.8916C31.1785 17.7333 30.6375 17.6145 30.0833 17.5354V15.8333H7.91667V31.6666H17.8917C18.0764 32.2472 18.2941 32.8014 18.5448 33.3291C18.7955 33.8569 19.0924 34.3583 19.4354 34.8333H7.91667ZM28.5 36.4166C26.3097 36.4166 24.4427 35.6448 22.899 34.101C21.3552 32.5573 20.5833 30.6902 20.5833 28.5C20.5833 26.3097 21.3552 24.4427 22.899 22.8989C24.4427 21.3552 26.3097 20.5833 28.5 20.5833C30.6903 20.5833 32.5573 21.3552 34.101 22.8989C35.6448 24.4427 36.4167 26.3097 36.4167 28.5C36.4167 30.6902 35.6448 32.5573 34.101 34.101C32.5573 35.6448 30.6903 36.4166 28.5 36.4166ZM31.1521 32.2604L32.2604 31.152L29.2917 28.1833V23.75H27.7083V28.8166L31.1521 32.2604Z" fill="#FE516D"/>
</g>
</g>
<path id="Vector_3" d="M21.3748 10.2917C21.1649 10.2917 20.9635 10.2083 20.815 10.0598C20.6666 9.91133 20.5832 9.70996 20.5832 9.5V8.70833H12.6665V7.125H20.5832V5.54167C20.5832 5.3317 20.6666 5.13034 20.815 4.98187C20.9635 4.83341 21.1649 4.75 21.3748 4.75C21.5848 4.75 21.7862 4.83341 21.9346 4.98187C22.0831 5.13034 22.1665 5.3317 22.1665 5.54167V9.5C22.1665 9.70996 22.0831 9.91133 21.9346 10.0598C21.7862 10.2083 21.5848 10.2917 21.3748 10.2917Z" fill="#FE516D"/>
</g>
</g>
<defs>
<clipPath id="clip0_1497_3218">
<rect width="38" height="38" fill="white"/>
</clipPath>
</defs>
</svg>
