<svg width="38" height="38" viewBox="0 0 38 38" fill="none" xmlns="http://www.w3.org/2000/svg">
<g id="directions_bus">
<mask id="mask0_2155_19568" style="mask-type:alpha" maskUnits="userSpaceOnUse" x="0" y="0" width="38" height="38">
<rect id="Bounding box" width="38" height="38" fill="#D9D9D9"/>
</mask>
<g mask="url(#mask0_2155_19568)">
<path id="directions_bus_2" d="M9.50016 33.25C9.05155 33.25 8.67551 33.0982 8.37204 32.7948C8.06857 32.4913 7.91683 32.1152 7.91683 31.6666V28.4208C7.44183 27.893 7.05919 27.3059 6.76891 26.6593C6.47863 26.0128 6.3335 25.3069 6.3335 24.5416V9.49996C6.3335 7.30968 7.34947 5.70656 9.38141 4.69058C11.4134 3.67461 14.6196 3.16663 19.0002 3.16663C23.5391 3.16663 26.7849 3.65482 28.7377 4.63121C30.6904 5.6076 31.6668 7.23052 31.6668 9.49996V24.5416C31.6668 25.3069 31.5217 26.0128 31.2314 26.6593C30.9411 27.3059 30.5585 27.893 30.0835 28.4208V31.6666C30.0835 32.1152 29.9318 32.4913 29.6283 32.7948C29.3248 33.0982 28.9488 33.25 28.5002 33.25H26.9168C26.4682 33.25 26.0922 33.0982 25.7887 32.7948C25.4852 32.4913 25.3335 32.1152 25.3335 31.6666V30.0833H12.6668V31.6666C12.6668 32.1152 12.5151 32.4913 12.2116 32.7948C11.9081 33.0982 11.5321 33.25 11.0835 33.25H9.50016ZM9.50016 15.8333H28.5002V11.0833H9.50016V15.8333ZM13.4585 25.3333C14.1182 25.3333 14.679 25.1024 15.1408 24.6406C15.6026 24.1788 15.8335 23.618 15.8335 22.9583C15.8335 22.2986 15.6026 21.7378 15.1408 21.276C14.679 20.8142 14.1182 20.5833 13.4585 20.5833C12.7988 20.5833 12.238 20.8142 11.7762 21.276C11.3144 21.7378 11.0835 22.2986 11.0835 22.9583C11.0835 23.618 11.3144 24.1788 11.7762 24.6406C12.238 25.1024 12.7988 25.3333 13.4585 25.3333ZM24.5418 25.3333C25.2016 25.3333 25.7623 25.1024 26.2241 24.6406C26.6859 24.1788 26.9168 23.618 26.9168 22.9583C26.9168 22.2986 26.6859 21.7378 26.2241 21.276C25.7623 20.8142 25.2016 20.5833 24.5418 20.5833C23.8821 20.5833 23.3213 20.8142 22.8595 21.276C22.3977 21.7378 22.1668 22.2986 22.1668 22.9583C22.1668 23.618 22.3977 24.1788 22.8595 24.6406C23.3213 25.1024 23.8821 25.3333 24.5418 25.3333ZM10.2127 7.91663H27.946C27.5502 7.46802 26.6991 7.09197 25.3929 6.7885C24.0866 6.48503 21.9821 6.33329 19.0793 6.33329C16.2557 6.33329 14.1908 6.49822 12.8845 6.82808C11.5783 7.15795 10.6877 7.52079 10.2127 7.91663ZM12.6668 26.9166H25.3335C26.2043 26.9166 26.9498 26.6066 27.57 25.9864C28.1901 25.3663 28.5002 24.6208 28.5002 23.75V19H9.50016V23.75C9.50016 24.6208 9.81023 25.3663 10.4304 25.9864C11.0505 26.6066 11.796 26.9166 12.6668 26.9166Z" fill="#FE516D"/>
</g>
</g>
</svg>
